<svg width="22" height="22" viewBox="0 0 22 22" fill="none" xmlns="http://www.w3.org/2000/svg">
<path d="M11.55 2.01668C11.3913 1.89767 11.1983 1.83334 11 1.83334C10.8017 1.83334 10.6087 1.89767 10.45 2.01668C10.0681 2.30926 9.71594 2.63871 9.39858 3.00026C8.91917 3.54018 8.25 4.45043 8.25 5.50001C8.25 6.22936 8.53973 6.92883 9.05546 7.44455C9.57118 7.96028 10.2707 8.25001 11 8.25001H5.5C4.77065 8.25001 4.07118 8.53974 3.55546 9.05547C3.03973 9.57119 2.75 10.2707 2.75 11V12.8333C2.75 13.9663 4.04342 14.6135 4.95 13.9333L5.56142 13.475C5.72009 13.356 5.91308 13.2917 6.11142 13.2917C6.30976 13.2917 6.50275 13.356 6.66142 13.475L6.90525 13.6583C7.38126 14.0154 7.96023 14.2083 8.55525 14.2083C9.15027 14.2083 9.72924 14.0154 10.2053 13.6583L10.45 13.475C10.6087 13.356 10.8017 13.2917 11 13.2917C11.1983 13.2917 11.3913 13.356 11.55 13.475L11.7948 13.6583C12.2708 14.0154 12.8497 14.2083 13.4447 14.2083C14.0398 14.2083 14.6187 14.0154 15.0947 13.6583L15.3386 13.475C15.4973 13.356 15.6902 13.2917 15.8886 13.2917C16.0869 13.2917 16.2799 13.356 16.4386 13.475L17.05 13.9333C17.9566 14.6135 19.25 13.9663 19.25 12.8333V11C19.25 10.2707 18.9603 9.57119 18.4445 9.05547C17.9288 8.53974 17.2293 8.25001 16.5 8.25001H11C11.7293 8.25001 12.4288 7.96028 12.9445 7.44455C13.4603 6.92883 13.75 6.22936 13.75 5.50001C13.75 4.45043 13.0808 3.54018 12.6014 3.00026C12.2843 2.64276 11.9323 2.30359 11.55 2.01668ZM3.66667 15.9638V18.3333C3.66667 18.8196 3.85982 19.2859 4.20364 19.6297C4.54745 19.9735 5.01377 20.1667 5.5 20.1667H16.5C16.9862 20.1667 17.4525 19.9735 17.7964 19.6297C18.1402 19.2859 18.3333 18.8196 18.3333 18.3333V15.9638C18.12 16.0408 17.8908 16.0631 17.6666 16.0287C17.4424 15.9943 17.2304 15.9042 17.05 15.7667L16.4386 15.3083C16.2799 15.1893 16.0869 15.125 15.8886 15.125C15.6902 15.125 15.4973 15.1893 15.3386 15.3083L15.0947 15.4917C14.6187 15.8487 14.0398 16.0417 13.4447 16.0417C12.8497 16.0417 12.2708 15.8487 11.7948 15.4917L11.55 15.3083C11.3913 15.1893 11.1983 15.125 11 15.125C10.8017 15.125 10.6087 15.1893 10.45 15.3083L10.2053 15.4917C9.72924 15.8487 9.15027 16.0417 8.55525 16.0417C7.96023 16.0417 7.38126 15.8487 6.90525 15.4917L6.66142 15.3083C6.50275 15.1893 6.30976 15.125 6.11142 15.125C5.91308 15.125 5.72009 15.1893 5.56142 15.3083L4.95 15.7667C4.76962 15.9042 4.55763 15.9943 4.33344 16.0287C4.10925 16.0631 3.88 16.0408 3.66667 15.9638Z" fill="#A77459"/>
</svg>
