<svg width="22" height="22" viewBox="0 0 22 22" fill="none" xmlns="http://www.w3.org/2000/svg">
<g clip-path="url(#clip0_94_225)">
<path fill-rule="evenodd" clip-rule="evenodd" d="M2.59179 0.702705C2.83238 0.462477 3.12128 0.276122 3.43934 0.155991C3.7574 0.0358597 4.09735 -0.0153054 4.43668 0.00588637C4.77601 0.0270782 5.10696 0.120143 5.4076 0.278913C5.70824 0.437684 5.97171 0.658535 6.18054 0.92683L8.64867 4.09758C9.10104 4.6792 9.26054 5.43683 9.08179 6.15183L8.32967 9.16308C8.29105 9.31906 8.29329 9.48236 8.33616 9.63722C8.37903 9.79209 8.46109 9.93329 8.57442 10.0472L11.9528 13.4256C12.0668 13.5391 12.2083 13.6213 12.3634 13.6642C12.5185 13.7071 12.6821 13.7092 12.8383 13.6703L15.8482 12.9182C16.201 12.8305 16.5692 12.8239 16.925 12.8989C17.2808 12.9739 17.615 13.1286 17.9024 13.3513L21.0732 15.8181C22.213 16.705 22.3175 18.3893 21.2973 19.4082L19.8755 20.83C18.858 21.8475 17.3373 22.2943 15.9197 21.7952C12.2906 20.52 8.99591 18.4426 6.28092 15.7177C3.55618 13.0031 1.4788 9.70891 0.203415 6.08033C-0.294335 4.66408 0.15254 3.14195 1.17004 2.12445L2.59179 0.702705Z" fill="#A77459"/>
</g>
<defs>
<clipPath id="clip0_94_225">
<rect width="22" height="22" fill="white"/>
</clipPath>
</defs>
</svg>
